<mxfile host="65bd71144e">
    <diagram id="Gk-hLTOUsqD8q3EFk8Ek" name="Page-1">
        <mxGraphModel dx="622" dy="956" grid="1" gridSize="10" guides="1" tooltips="1" connect="1" arrows="1" fold="1" page="1" pageScale="1" pageWidth="850" pageHeight="1100" math="0" shadow="0">
            <root>
                <mxCell id="0"/>
                <mxCell id="1" parent="0"/>
                <mxCell id="11" value="Работа прачечной" style="swimlane;childLayout=stackLayout;resizeParent=1;resizeParentMax=0;startSize=20;html=1;whiteSpace=wrap;" vertex="1" parent="1">
                    <mxGeometry x="120" y="20" width="510" height="590" as="geometry"/>
                </mxCell>
                <mxCell id="13" value="Партнёр" style="swimlane;startSize=20;html=1;whiteSpace=wrap;" vertex="1" parent="11">
                    <mxGeometry y="20" width="149.99999999999955" height="570" as="geometry"/>
                </mxCell>
                <mxCell id="17" value="Собрать розничные заказы" style="html=1;align=center;verticalAlign=top;rounded=1;absoluteArcSize=1;arcSize=10;dashed=0;whiteSpace=wrap;" vertex="1" parent="13">
                    <mxGeometry x="25" y="80" width="100" height="50" as="geometry"/>
                </mxCell>
                <mxCell id="21" value="Оставить заявку" style="html=1;align=center;verticalAlign=top;rounded=1;absoluteArcSize=1;arcSize=10;dashed=0;whiteSpace=wrap;" vertex="1" parent="13">
                    <mxGeometry x="25" y="143" width="100" height="30" as="geometry"/>
                </mxCell>
                <mxCell id="22" style="edgeStyle=none;shape=connector;rounded=1;html=1;strokeColor=default;align=center;verticalAlign=middle;fontFamily=Helvetica;fontSize=11;fontColor=default;labelBackgroundColor=default;endArrow=open;endFill=0;" edge="1" parent="13" source="17" target="21">
                    <mxGeometry relative="1" as="geometry"/>
                </mxCell>
                <mxCell id="27" value="Оплатить&amp;nbsp;&lt;br&gt;&lt;span style=&quot;color: rgb(0, 0, 0);&quot;&gt;партнёрский&lt;br&gt;&lt;/span&gt;заказ" style="html=1;align=center;verticalAlign=top;rounded=1;absoluteArcSize=1;arcSize=10;dashed=0;whiteSpace=wrap;" vertex="1" parent="13">
                    <mxGeometry x="10" y="278" width="120" height="48" as="geometry"/>
                </mxCell>
                <mxCell id="39" value="Предоставить розничные заказы" style="html=1;align=center;verticalAlign=top;rounded=1;absoluteArcSize=1;arcSize=10;dashed=0;whiteSpace=wrap;" vertex="1" parent="13">
                    <mxGeometry x="20" y="369" width="105" height="41" as="geometry"/>
                </mxCell>
                <mxCell id="16" value="" style="ellipse;fillColor=strokeColor;html=1;" vertex="1" parent="13">
                    <mxGeometry x="65.00000000000045" y="40" width="20" height="20" as="geometry"/>
                </mxCell>
                <mxCell id="20" style="edgeStyle=none;html=1;endArrow=open;endFill=0;" edge="1" parent="13" source="16" target="17">
                    <mxGeometry relative="1" as="geometry"/>
                </mxCell>
                <mxCell id="45" style="edgeStyle=orthogonalEdgeStyle;shape=connector;rounded=1;html=1;exitX=0.5;exitY=1;exitDx=0;exitDy=0;strokeColor=default;align=center;verticalAlign=middle;fontFamily=Helvetica;fontSize=11;fontColor=default;labelBackgroundColor=default;endArrow=open;endFill=0;" edge="1" parent="13" source="42" target="44">
                    <mxGeometry relative="1" as="geometry"/>
                </mxCell>
                <mxCell id="42" value="Забрать&amp;nbsp; готовые розничные заказы" style="html=1;align=center;verticalAlign=top;rounded=1;absoluteArcSize=1;arcSize=10;dashed=0;whiteSpace=wrap;" vertex="1" parent="13">
                    <mxGeometry x="25" y="466" width="105" height="41" as="geometry"/>
                </mxCell>
                <mxCell id="44" value="" style="ellipse;html=1;shape=endState;fillColor=strokeColor;rounded=1;dashed=0;strokeColor=default;align=center;verticalAlign=top;arcSize=10;fontFamily=Helvetica;fontSize=11;fontColor=default;labelBackgroundColor=default;" vertex="1" parent="13">
                    <mxGeometry x="62.5" y="530" width="30" height="30" as="geometry"/>
                </mxCell>
                <mxCell id="12" value="Менеджер" style="swimlane;startSize=20;html=1;" vertex="1" parent="11">
                    <mxGeometry x="149.99999999999955" y="20" width="120" height="570" as="geometry"/>
                </mxCell>
                <mxCell id="23" value="Рассмотреть заявку" style="html=1;align=center;verticalAlign=top;rounded=1;absoluteArcSize=1;arcSize=10;dashed=0;whiteSpace=wrap;" vertex="1" parent="12">
                    <mxGeometry x="10" y="182" width="100" height="40" as="geometry"/>
                </mxCell>
                <mxCell id="25" value="Составить партнёрский заказ" style="html=1;align=center;verticalAlign=top;rounded=1;absoluteArcSize=1;arcSize=10;dashed=0;whiteSpace=wrap;" vertex="1" parent="12">
                    <mxGeometry x="5" y="241" width="110" height="37" as="geometry"/>
                </mxCell>
                <mxCell id="26" style="edgeStyle=orthogonalEdgeStyle;shape=connector;rounded=1;html=1;exitX=0.5;exitY=1;exitDx=0;exitDy=0;strokeColor=default;align=center;verticalAlign=middle;fontFamily=Helvetica;fontSize=11;fontColor=default;labelBackgroundColor=default;endArrow=open;endFill=0;" edge="1" parent="12" source="23" target="25">
                    <mxGeometry relative="1" as="geometry"/>
                </mxCell>
                <mxCell id="14" value="Система" style="swimlane;startSize=20;html=1;" vertex="1" parent="11">
                    <mxGeometry x="269.99999999999955" y="20" width="120.00000000000045" height="570" as="geometry"/>
                </mxCell>
                <mxCell id="29" value="Сообщить производству об оплате" style="html=1;align=center;verticalAlign=top;rounded=1;absoluteArcSize=1;arcSize=10;dashed=0;whiteSpace=wrap;" vertex="1" parent="14">
                    <mxGeometry x="10" y="312" width="100" height="51" as="geometry"/>
                </mxCell>
                <mxCell id="31" value="Отобразить заявку" style="html=1;align=center;verticalAlign=top;rounded=1;absoluteArcSize=1;arcSize=10;dashed=0;whiteSpace=wrap;" vertex="1" parent="14">
                    <mxGeometry x="10" y="138" width="100" height="40" as="geometry"/>
                </mxCell>
                <mxCell id="33" value="Отобразить заказ" style="html=1;align=center;verticalAlign=top;rounded=1;absoluteArcSize=1;arcSize=10;dashed=0;whiteSpace=wrap;" vertex="1" parent="14">
                    <mxGeometry x="10" y="238" width="100" height="40" as="geometry"/>
                </mxCell>
                <mxCell id="37" value="Сообщить об окончании работы производства" style="html=1;align=center;verticalAlign=top;rounded=1;absoluteArcSize=1;arcSize=10;dashed=0;whiteSpace=wrap;" vertex="1" parent="14">
                    <mxGeometry x="10" y="451" width="100" height="71" as="geometry"/>
                </mxCell>
                <mxCell id="15" value="Производство" style="swimlane;startSize=20;html=1;" vertex="1" parent="11">
                    <mxGeometry x="390" y="20" width="120" height="570" as="geometry"/>
                </mxCell>
                <mxCell id="35" value="Работа прачечной" style="html=1;align=center;verticalAlign=top;rounded=1;absoluteArcSize=1;arcSize=10;dashed=0;whiteSpace=wrap;" vertex="1" parent="15">
                    <mxGeometry x="10" y="410" width="100" height="41" as="geometry"/>
                </mxCell>
                <mxCell id="24" style="edgeStyle=orthogonalEdgeStyle;shape=connector;rounded=1;html=1;strokeColor=default;align=center;verticalAlign=middle;fontFamily=Helvetica;fontSize=11;fontColor=default;labelBackgroundColor=default;endArrow=open;endFill=0;elbow=vertical;exitX=1;exitY=0.5;exitDx=0;exitDy=0;curved=0;strokeWidth=1;jumpSize=4;endSize=6;startSize=6;targetPerimeterSpacing=0;entryX=0;entryY=0.5;entryDx=0;entryDy=0;" edge="1" parent="11" source="21" target="31">
                    <mxGeometry relative="1" as="geometry"/>
                </mxCell>
                <mxCell id="32" style="edgeStyle=orthogonalEdgeStyle;shape=connector;rounded=1;html=1;entryX=1;entryY=0.5;entryDx=0;entryDy=0;strokeColor=default;align=center;verticalAlign=middle;fontFamily=Helvetica;fontSize=11;fontColor=default;labelBackgroundColor=default;endArrow=open;endFill=0;exitX=0.5;exitY=1;exitDx=0;exitDy=0;" edge="1" parent="11" source="31" target="23">
                    <mxGeometry relative="1" as="geometry"/>
                </mxCell>
                <mxCell id="28" style="edgeStyle=orthogonalEdgeStyle;shape=connector;rounded=1;html=1;strokeColor=default;align=center;verticalAlign=middle;fontFamily=Helvetica;fontSize=11;fontColor=default;labelBackgroundColor=default;endArrow=open;endFill=0;exitX=1;exitY=0.5;exitDx=0;exitDy=0;" edge="1" parent="11" source="25" target="33">
                    <mxGeometry relative="1" as="geometry"/>
                </mxCell>
                <mxCell id="30" style="edgeStyle=orthogonalEdgeStyle;shape=connector;rounded=1;html=1;strokeColor=default;align=center;verticalAlign=middle;fontFamily=Helvetica;fontSize=11;fontColor=default;labelBackgroundColor=default;endArrow=open;endFill=0;exitX=0.5;exitY=1;exitDx=0;exitDy=0;entryX=0;entryY=0.5;entryDx=0;entryDy=0;" edge="1" parent="11" source="27" target="29">
                    <mxGeometry relative="1" as="geometry">
                        <mxPoint x="80.00000000000011" y="250" as="targetPoint"/>
                    </mxGeometry>
                </mxCell>
                <mxCell id="34" style="edgeStyle=orthogonalEdgeStyle;shape=connector;rounded=1;html=1;exitX=0.5;exitY=1;exitDx=0;exitDy=0;entryX=1;entryY=0.5;entryDx=0;entryDy=0;strokeColor=default;align=center;verticalAlign=middle;fontFamily=Helvetica;fontSize=11;fontColor=default;labelBackgroundColor=default;endArrow=open;endFill=0;" edge="1" parent="11" source="33" target="27">
                    <mxGeometry relative="1" as="geometry"/>
                </mxCell>
                <mxCell id="40" style="edgeStyle=orthogonalEdgeStyle;shape=connector;rounded=1;html=1;exitX=0.5;exitY=1;exitDx=0;exitDy=0;entryX=1;entryY=0.5;entryDx=0;entryDy=0;strokeColor=default;align=center;verticalAlign=middle;fontFamily=Helvetica;fontSize=11;fontColor=default;labelBackgroundColor=default;endArrow=open;endFill=0;" edge="1" parent="11" source="29" target="39">
                    <mxGeometry relative="1" as="geometry"/>
                </mxCell>
                <mxCell id="41" style="edgeStyle=orthogonalEdgeStyle;shape=connector;rounded=1;html=1;exitX=0.5;exitY=1;exitDx=0;exitDy=0;entryX=0;entryY=0.5;entryDx=0;entryDy=0;strokeColor=default;align=center;verticalAlign=middle;fontFamily=Helvetica;fontSize=11;fontColor=default;labelBackgroundColor=default;endArrow=open;endFill=0;" edge="1" parent="11" source="39" target="35">
                    <mxGeometry relative="1" as="geometry"/>
                </mxCell>
                <mxCell id="38" style="edgeStyle=orthogonalEdgeStyle;shape=connector;rounded=1;html=1;entryX=1;entryY=0.5;entryDx=0;entryDy=0;strokeColor=default;align=center;verticalAlign=middle;fontFamily=Helvetica;fontSize=11;fontColor=default;labelBackgroundColor=default;endArrow=open;endFill=0;exitX=0.5;exitY=1;exitDx=0;exitDy=0;" edge="1" parent="11" source="35" target="37">
                    <mxGeometry relative="1" as="geometry"/>
                </mxCell>
                <mxCell id="43" style="edgeStyle=orthogonalEdgeStyle;shape=connector;rounded=1;html=1;exitX=0;exitY=0.5;exitDx=0;exitDy=0;entryX=1;entryY=0.5;entryDx=0;entryDy=0;strokeColor=default;align=center;verticalAlign=middle;fontFamily=Helvetica;fontSize=11;fontColor=default;labelBackgroundColor=default;endArrow=open;endFill=0;" edge="1" parent="11" source="37" target="42">
                    <mxGeometry relative="1" as="geometry"/>
                </mxCell>
            </root>
        </mxGraphModel>
    </diagram>
</mxfile>